<svg width="32" height="32" viewBox="0 0 32 32" fill="none" xmlns="http://www.w3.org/2000/svg">
<circle cx="18" cy="17" r="14" fill="#A785FF" fill-opacity="0.4"/>
<circle cx="14" cy="15" r="13.5" stroke="#A785FF"/>
<path d="M19.2726 13.576C19.2726 14.776 18.6126 15.61 17.2926 16.078C18.0126 16.282 18.5946 16.618 19.0386 17.086C19.4826 17.554 19.7046 18.154 19.7046 18.886C19.7046 19.882 19.3266 20.686 18.5706 21.298C17.8146 21.898 16.8186 22.198 15.5826 22.198C14.3466 22.198 13.2906 21.88 12.4146 21.244C11.5506 20.596 11.1186 19.69 11.1186 18.526H12.5946C12.6186 19.294 12.9006 19.882 13.4406 20.29C13.9926 20.698 14.6886 20.902 15.5286 20.902C16.3686 20.902 17.0166 20.704 17.4726 20.308C17.9406 19.9 18.1746 19.402 18.1746 18.814C18.1746 18.214 17.9526 17.728 17.5086 17.356C17.0646 16.972 16.3446 16.78 15.3486 16.78H14.0526V15.646H14.9346C15.7986 15.646 16.4826 15.478 16.9866 15.142C17.4906 14.794 17.7426 14.332 17.7426 13.756C17.7426 13.18 17.5386 12.706 17.1306 12.334C16.7226 11.962 16.1826 11.776 15.5106 11.776C14.8386 11.776 14.2746 11.896 13.8186 12.136C13.3746 12.364 13.0746 12.796 12.9186 13.432H11.4426C11.5746 12.436 11.9886 11.698 12.6846 11.218C13.3806 10.726 14.2746 10.48 15.3666 10.48C16.4706 10.48 17.3946 10.774 18.1386 11.362C18.8946 11.938 19.2726 12.676 19.2726 13.576Z" fill="#A785FF"/>
</svg>
