<svg width="32" height="32" viewBox="0 0 32 32" fill="none" xmlns="http://www.w3.org/2000/svg">
<circle cx="18" cy="17" r="14" fill="#8368FF" fill-opacity="0.4"/>
<circle cx="14" cy="15" r="13.5" stroke="#8368FF"/>
<path d="M12.8533 20.686H19.4233V22H11.4313V20.326C11.4313 18.994 11.9353 18.016 12.9433 17.392C13.2673 17.188 13.6273 17.008 14.0233 16.852L16.2553 15.952C17.4073 15.496 17.9833 14.746 17.9833 13.702C17.9833 13.126 17.7853 12.658 17.3893 12.298C16.9933 11.926 16.4353 11.74 15.7153 11.74C15.0073 11.74 14.4253 11.89 13.9693 12.19C13.5253 12.49 13.2673 12.94 13.1953 13.54H11.6293C11.6893 12.556 12.0853 11.8 12.8173 11.272C13.5493 10.744 14.4853 10.48 15.6253 10.48C16.7773 10.48 17.7133 10.792 18.4333 11.416C19.1533 12.04 19.5133 12.814 19.5133 13.738C19.5133 14.65 19.2733 15.376 18.7933 15.916C18.3253 16.456 17.6773 16.888 16.8493 17.212L14.5633 18.13C13.9873 18.37 13.5553 18.646 13.2673 18.958C12.9913 19.258 12.8533 19.654 12.8533 20.146V20.686Z" fill="#8368FF"/>
</svg>
