<svg width="20" height="19" viewBox="0 0 20 19" fill="none" xmlns="http://www.w3.org/2000/svg">
<path d="M10 0C4.47833 0 0 4.36116 0 9.74016C0 14.0437 2.865 17.6946 6.83917 18.9828C7.33833 19.0729 7.5 18.7709 7.5 18.5144V16.7011C4.71833 17.2904 4.13917 15.5518 4.13917 15.5518C3.68417 14.426 3.02833 14.1265 3.02833 14.1265C2.12083 13.5218 3.0975 13.5348 3.0975 13.5348C4.10167 13.6029 4.63 14.5388 4.63 14.5388C5.52167 16.0274 6.96917 15.5972 7.54 15.3481C7.62917 14.719 7.88833 14.2888 8.175 14.0461C5.95417 13.7986 3.61917 12.9633 3.61917 9.23205C3.61917 8.16794 4.01 7.29944 4.64917 6.61763C4.54583 6.37169 4.20333 5.38063 4.74667 4.03973C4.74667 4.03973 5.58667 3.77837 7.4975 5.0381C8.295 4.82219 9.15 4.71424 10 4.71018C10.85 4.71424 11.7058 4.82219 12.505 5.0381C14.4142 3.77837 15.2525 4.03973 15.2525 4.03973C15.7967 5.38144 15.4542 6.3725 15.3508 6.61763C15.9925 7.29944 16.38 8.16875 16.38 9.23205C16.38 12.9731 14.0408 13.7969 11.8142 14.038C12.1725 14.34 12.5 14.9325 12.5 15.8416V18.5144C12.5 18.7734 12.66 19.0777 13.1675 18.982C17.1383 17.6922 20 14.0421 20 9.74016C20 4.36116 15.5225 0 10 0Z" fill="#F9FBFC"/>
</svg>
