<svg width="857" height="498" viewBox="0 0 857 498" fill="none" xmlns="http://www.w3.org/2000/svg">
<g opacity="0.7">
<path opacity="0.2" d="M209.83 142.352L197.582 135.42L209.83 128.256L222.078 135.42L209.83 142.352Z" fill="#5761D7"/>
<path opacity="0.1" d="M234.557 156.679L222.078 149.515L234.557 142.352L246.805 149.515L234.557 156.679Z" fill="#5761D7"/>
<path opacity="0.4" d="M259.052 170.777L246.805 163.844L259.052 156.681L271.3 163.844L259.052 170.777Z" fill="#5761D7"/>
<path opacity="0.2" d="M283.548 185.106L271.3 177.942L283.548 170.778L296.026 177.942L283.548 185.106Z" fill="#5761D7"/>
<path opacity="0.4" d="M308.275 199.2L296.027 192.267L308.275 185.104L320.523 192.267L308.275 199.2Z" fill="#5761D7"/>
<path opacity="0.2" d="M332.77 213.53L320.522 206.366L332.77 199.202L345.018 206.366L332.77 213.53Z" fill="#5761D7"/>
<path opacity="0.2" d="M357.497 227.627L345.019 220.463L357.497 213.53L369.745 220.463L357.497 227.627Z" fill="#5761D7"/>
<path opacity="0.2" d="M381.992 241.954L369.744 234.79L381.992 227.626L394.24 234.79L381.992 241.954Z" fill="#5761D7"/>
<path opacity="0.1" d="M406.719 256.05L394.24 248.886L406.719 241.953L418.967 248.886L406.719 256.05Z" fill="#5761D7"/>
<path opacity="0.2" d="M185.103 156.681L172.855 149.517L185.103 142.584L197.351 149.517L185.103 156.681Z" fill="#5761D7"/>
<path opacity="0.2" d="M209.83 171.008L197.352 163.844L209.83 156.681L222.078 163.844L209.83 171.008Z" fill="#5761D7"/>
<path opacity="0.2" d="M234.326 185.103L222.078 177.94L234.326 171.007L246.574 177.94L234.326 185.103Z" fill="#5761D7"/>
<path opacity="0.2" d="M259.052 199.433L246.573 192.269L259.052 185.105L271.3 192.269L259.052 199.433Z" fill="#5761D7"/>
<path opacity="0.2" d="M283.548 213.529L271.3 206.365L283.548 199.433L295.795 206.365L283.548 213.529Z" fill="#5761D7"/>
<path opacity="0.2" d="M308.044 227.626L295.796 220.693L308.044 213.529L320.523 220.693L308.044 227.626Z" fill="#5761D7"/>
<path opacity="0.2" d="M332.77 241.954L320.522 234.79L332.77 227.626L345.018 234.79L332.77 241.954Z" fill="#5761D7"/>
<path opacity="0.2" d="M357.265 256.05L345.018 249.117L357.265 241.953L369.513 249.117L357.265 256.05Z" fill="#5761D7"/>
<path opacity="0.2" d="M381.993 270.376L369.514 263.213L381.993 256.049L394.24 263.213L381.993 270.376Z" fill="#5761D7"/>
<path opacity="0.2" d="M160.377 171.006L148.129 163.843L160.377 156.679L172.856 163.843L160.377 171.006Z" fill="#5761D7"/>
<path opacity="0.2" d="M185.103 185.101L172.855 178.169L185.103 171.005L197.351 178.169L185.103 185.101Z" fill="#5761D7"/>
<path opacity="0.2" d="M209.599 199.429L197.352 192.265L209.599 185.102L221.847 192.265L209.599 199.429Z" fill="#5761D7"/>
<path opacity="0.1" d="M234.326 213.527L221.847 206.363L234.326 199.431L246.573 206.363L234.326 213.527Z" fill="#5761D7"/>
<path opacity="0.4" d="M258.821 227.853L246.573 220.689L258.821 213.525L271.069 220.689L258.821 227.853Z" fill="#5761D7"/>
<path opacity="0.4" d="M283.547 241.95L271.068 234.786L283.547 227.854L295.795 234.786L283.547 241.95Z" fill="#5761D7"/>
<path opacity="0.2" d="M308.044 256.279L295.796 249.115L308.044 241.951L320.291 249.115L308.044 256.279Z" fill="#5761D7"/>
<path opacity="0.2" d="M332.539 270.374L320.291 263.21L332.539 256.277L345.018 263.21L332.539 270.374Z" fill="#5761D7"/>
<path opacity="0.2" d="M357.265 284.471L345.018 277.538L357.265 270.374L369.513 277.538L357.265 284.471Z" fill="#5761D7"/>
<path opacity="0.4" d="M135.88 185.335L123.401 178.172L135.88 171.008L148.128 178.172L135.88 185.335Z" fill="#5761D7"/>
<path opacity="0.4" d="M160.376 199.433L148.128 192.27L160.376 185.337L172.624 192.27L160.376 199.433Z" fill="#5761D7"/>
<path opacity="0.1" d="M184.872 213.53L172.624 206.597L184.872 199.434L197.351 206.597L184.872 213.53Z" fill="#5761D7"/>
<path opacity="0.2" d="M209.598 227.859L197.351 220.695L209.598 213.531L221.846 220.695L209.598 227.859Z" fill="#5761D7"/>
<path opacity="0.2" d="M234.094 241.953L221.846 235.02L234.094 227.856L246.341 235.02L234.094 241.953Z" fill="#5761D7"/>
<path opacity="0.2" d="M258.82 256.282L246.341 249.118L258.82 241.954L271.068 249.118L258.82 256.282Z" fill="#5761D7"/>
<path opacity="0.4" d="M283.316 270.379L271.068 263.446L283.316 256.282L295.564 263.446L283.316 270.379Z" fill="#5761D7"/>
<path opacity="0.2" d="M308.042 284.706L295.563 277.542L308.042 270.378L320.29 277.542L308.042 284.706Z" fill="#5761D7"/>
<path opacity="0.2" d="M332.539 298.803L320.291 291.639L332.539 284.706L344.787 291.639L332.539 298.803Z" fill="#5761D7"/>
<path opacity="0.2" d="M111.155 199.432L98.6758 192.5L111.155 185.336L123.402 192.5L111.155 199.432Z" fill="#5761D7"/>
<path opacity="0.2" d="M135.65 213.76L123.402 206.596L135.65 199.433L147.898 206.596L135.65 213.76Z" fill="#5761D7"/>
<path opacity="0.2" d="M160.377 227.855L147.898 220.692L160.377 213.759L172.625 220.692L160.377 227.855Z" fill="#5761D7"/>
<path opacity="0.2" d="M184.873 242.185L172.625 235.021L184.873 227.857L197.121 235.021L184.873 242.185Z" fill="#5761D7"/>
<path opacity="0.2" d="M209.368 256.28L197.12 249.116L209.368 242.184L221.847 249.116L209.368 256.28Z" fill="#5761D7"/>
<path opacity="0.2" d="M234.094 270.377L221.847 263.444L234.094 256.28L246.342 263.444L234.094 270.377Z" fill="#5761D7"/>
<path opacity="0.2" d="M258.59 284.704L246.342 277.54L258.59 270.376L270.837 277.54L258.59 284.704Z" fill="#5761D7"/>
<path opacity="0.2" d="M283.317 298.802L270.838 291.869L283.317 284.705L295.565 291.869L283.317 298.802Z" fill="#5761D7"/>
<path opacity="0.2" d="M307.812 313.128L295.564 305.965L307.812 298.801L320.06 305.965L307.812 313.128Z" fill="#5761D7"/>
<path opacity="0.2" d="M86.4285 213.761L74.1807 206.597L86.4285 199.664L98.6763 206.597L86.4285 213.761Z" fill="#5761D7"/>
<path opacity="0.2" d="M110.925 227.856L98.6768 220.924L110.925 213.76L123.172 220.924L110.925 227.856Z" fill="#5761D7"/>
<path opacity="0.4" d="M135.651 242.185L123.172 235.021L135.651 227.857L147.899 235.021L135.651 242.185Z" fill="#5761D7"/>
<path opacity="0.2" d="M160.146 256.282L147.898 249.349L160.146 242.186L172.394 249.349L160.146 256.282Z" fill="#5761D7"/>
<path opacity="0.1" d="M184.873 270.609L172.395 263.445L184.873 256.281L197.121 263.445L184.873 270.609Z" fill="#5761D7"/>
<path opacity="0.2" d="M209.368 284.707L197.12 277.543L209.368 270.61L221.616 277.543L209.368 284.707Z" fill="#5761D7"/>
<path opacity="0.2" d="M233.864 299.033L221.616 291.869L233.864 284.705L246.343 291.869L233.864 299.033Z" fill="#5761D7"/>
<path opacity="0.2" d="M258.591 313.13L246.343 305.966L258.591 299.033L270.838 305.966L258.591 313.13Z" fill="#5761D7"/>
<path opacity="0.2" d="M283.087 327.456L270.839 320.292L283.087 313.128L295.334 320.292L283.087 327.456Z" fill="#5761D7"/>
<path opacity="0.2" d="M61.7009 228.087L49.4531 220.924L61.7009 213.76L73.9487 220.924L61.7009 228.087Z" fill="#5761D7"/>
<path opacity="0.2" d="M86.197 242.185L73.9492 235.022L86.197 228.089L98.6759 235.022L86.197 242.185Z" fill="#5761D7"/>
<path opacity="0.4" d="M110.924 256.511L98.6758 249.347L110.924 242.184L123.171 249.347L110.924 256.511Z" fill="#5761D7"/>
<path opacity="0.2" d="M135.419 270.608L123.171 263.444L135.419 256.512L147.666 263.444L135.419 270.608Z" fill="#5761D7"/>
<path opacity="0.2" d="M160.146 284.704L147.667 277.771L160.146 270.607L172.394 277.771L160.146 284.704Z" fill="#5761D7"/>
<path opacity="0.1" d="M184.641 299.033L172.394 291.869L184.641 284.705L196.889 291.869L184.641 299.033Z" fill="#5761D7"/>
<path opacity="0.4" d="M209.368 313.13L196.889 306.197L209.368 299.033L221.615 306.197L209.368 313.13Z" fill="#5761D7"/>
<path opacity="0.2" d="M233.863 327.456L221.615 320.292L233.863 313.128L246.111 320.292L233.863 327.456Z" fill="#5761D7"/>
<path opacity="0.1" d="M258.359 341.554L246.111 334.621L258.359 327.457L270.838 334.621L258.359 341.554Z" fill="#5761D7"/>
<path opacity="0.2" d="M36.9744 242.183L24.7266 235.251L36.9744 228.087L49.2221 235.251L36.9744 242.183Z" fill="#5761D7"/>
<path opacity="0.4" d="M61.7015 256.51L49.2227 249.346L61.7015 242.183L73.9493 249.346L61.7015 256.51Z" fill="#5761D7"/>
<path opacity="0.2" d="M86.197 270.607L73.9492 263.675L86.197 256.511L98.4448 263.675L86.197 270.607Z" fill="#5761D7"/>
<path opacity="0.2" d="M110.692 284.936L98.4443 277.772L110.692 270.608L123.171 277.772L110.692 284.936Z" fill="#5761D7"/>
<path opacity="0.2" d="M135.419 299.03L123.171 291.866L135.419 284.934L147.666 291.866L135.419 299.03Z" fill="#5761D7"/>
<path opacity="0.2" d="M159.914 313.36L147.666 306.196L159.914 299.032L172.162 306.196L159.914 313.36Z" fill="#5761D7"/>
<path opacity="0.2" d="M184.641 327.457L172.162 320.293L184.641 313.36L196.889 320.293L184.641 327.457Z" fill="#5761D7"/>
<path opacity="0.4" d="M209.136 341.553L196.889 334.62L209.136 327.456L221.384 334.62L209.136 341.553Z" fill="#5761D7"/>
<path opacity="0.2" d="M233.864 355.878L221.385 348.715L233.864 341.551L246.111 348.715L233.864 355.878Z" fill="#5761D7"/>
<path opacity="0.2" d="M12.2478 256.513L0 249.349L12.2478 242.416L24.4956 249.349L12.2478 256.513Z" fill="#5761D7"/>
<path opacity="0.1" d="M36.975 270.608L24.4961 263.676L36.975 256.512L49.2228 263.676L36.975 270.608Z" fill="#5761D7"/>
<path opacity="0.2" d="M61.4705 284.938L49.2227 277.774L61.4705 270.61L73.7182 277.774L61.4705 284.938Z" fill="#5761D7"/>
<path opacity="0.2" d="M86.1967 299.033L73.7178 292.1L86.1967 284.937L98.4444 292.1L86.1967 299.033Z" fill="#5761D7"/>
<path opacity="0.2" d="M110.692 313.361L98.4443 306.197L110.692 299.033L122.94 306.197L110.692 313.361Z" fill="#5761D7"/>
<path opacity="0.2" d="M135.187 327.459L122.939 320.526L135.187 313.362L147.666 320.526L135.187 327.459Z" fill="#5761D7"/>
<path opacity="0.4" d="M159.914 341.785L147.666 334.621L159.914 327.457L172.162 334.621L159.914 341.785Z" fill="#5761D7"/>
<path opacity="0.2" d="M184.41 355.882L172.162 348.718L184.41 341.785L196.658 348.718L184.41 355.882Z" fill="#5761D7"/>
<path opacity="0.2" d="M209.137 370.207L196.658 363.044L209.137 355.88L221.385 363.044L209.137 370.207Z" fill="#5761D7"/>
<path opacity="0.2" d="M647.052 142.352L634.805 135.42L647.052 128.256L659.3 135.42L647.052 142.352Z" fill="#5761D7"/>
<path opacity="0.1" d="M671.779 156.679L659.3 149.515L671.779 142.352L684.027 149.515L671.779 156.679Z" fill="#5761D7"/>
<path opacity="0.4" d="M696.275 170.777L684.027 163.844L696.275 156.681L708.523 163.844L696.275 170.777Z" fill="#5761D7"/>
<path opacity="0.2" d="M720.77 185.106L708.522 177.942L720.77 170.778L733.249 177.942L720.77 185.106Z" fill="#5761D7"/>
<path opacity="0.4" d="M745.497 199.2L733.249 192.267L745.497 185.104L757.745 192.267L745.497 199.2Z" fill="#5761D7"/>
<path opacity="0.2" d="M769.992 213.53L757.744 206.366L769.992 199.202L782.24 206.366L769.992 213.53Z" fill="#5761D7"/>
<path opacity="0.2" d="M794.719 227.627L782.472 220.463L794.719 213.53L806.967 220.463L794.719 227.627Z" fill="#5761D7"/>
<path opacity="0.2" d="M819.215 241.954L806.967 234.79L819.215 227.626L831.462 234.79L819.215 241.954Z" fill="#5761D7"/>
<path opacity="0.1" d="M843.941 256.05L831.462 248.886L843.941 241.953L856.189 248.886L843.941 256.05Z" fill="#5761D7"/>
<path opacity="0.2" d="M622.326 156.681L610.078 149.517L622.326 142.584L634.574 149.517L622.326 156.681Z" fill="#5761D7"/>
<path opacity="0.2" d="M647.053 171.008L634.574 163.844L647.053 156.681L659.301 163.844L647.053 171.008Z" fill="#5761D7"/>
<path opacity="0.2" d="M671.549 185.103L659.301 177.94L671.549 171.007L683.796 177.94L671.549 185.103Z" fill="#5761D7"/>
<path opacity="0.2" d="M696.275 199.433L683.796 192.269L696.275 185.105L708.523 192.269L696.275 199.433Z" fill="#5761D7"/>
<path opacity="0.2" d="M720.771 213.529L708.523 206.365L720.771 199.433L733.019 206.365L720.771 213.529Z" fill="#5761D7"/>
<path opacity="0.2" d="M745.266 227.626L733.019 220.693L745.266 213.529L757.745 220.693L745.266 227.626Z" fill="#5761D7"/>
<path opacity="0.2" d="M769.992 241.954L757.744 234.79L769.992 227.626L782.24 234.79L769.992 241.954Z" fill="#5761D7"/>
<path opacity="0.2" d="M794.488 256.05L782.24 249.117L794.488 241.953L806.736 249.117L794.488 256.05Z" fill="#5761D7"/>
<path opacity="0.2" d="M819.215 270.376L806.967 263.213L819.215 256.049L831.462 263.213L819.215 270.376Z" fill="#5761D7"/>
<path opacity="0.2" d="M597.599 171.006L585.352 163.843L597.599 156.679L610.078 163.843L597.599 171.006Z" fill="#5761D7"/>
<path opacity="0.2" d="M622.326 185.101L610.078 178.169L622.326 171.005L634.574 178.169L622.326 185.101Z" fill="#5761D7"/>
<path opacity="0.2" d="M646.822 199.429L634.574 192.265L646.822 185.102L659.07 192.265L646.822 199.429Z" fill="#5761D7"/>
<path opacity="0.1" d="M671.548 213.527L659.069 206.363L671.548 199.431L683.796 206.363L671.548 213.527Z" fill="#5761D7"/>
<path opacity="0.4" d="M696.044 227.853L683.796 220.689L696.044 213.525L708.291 220.689L696.044 227.853Z" fill="#5761D7"/>
<path opacity="0.4" d="M720.77 241.95L708.291 234.786L720.77 227.854L733.018 234.786L720.77 241.95Z" fill="#5761D7"/>
<path opacity="0.2" d="M745.265 256.279L733.018 249.115L745.265 241.951L757.513 249.115L745.265 256.279Z" fill="#5761D7"/>
<path opacity="0.2" d="M769.762 270.374L757.514 263.21L769.762 256.277L782.24 263.21L769.762 270.374Z" fill="#5761D7"/>
<path opacity="0.2" d="M794.488 284.471L782.24 277.538L794.488 270.374L806.736 277.538L794.488 284.471Z" fill="#5761D7"/>
<path opacity="0.4" d="M573.103 185.335L560.624 178.172L573.103 171.008L585.351 178.172L573.103 185.335Z" fill="#5761D7"/>
<path opacity="0.4" d="M597.598 199.433L585.351 192.27L597.598 185.337L609.846 192.27L597.598 199.433Z" fill="#5761D7"/>
<path opacity="0.1" d="M622.095 213.53L609.847 206.597L622.095 199.434L634.573 206.597L622.095 213.53Z" fill="#5761D7"/>
<path opacity="0.2" d="M646.821 227.859L634.573 220.695L646.821 213.531L659.069 220.695L646.821 227.859Z" fill="#5761D7"/>
<path opacity="0.2" d="M671.316 241.953L659.068 235.02L671.316 227.856L683.564 235.02L671.316 241.953Z" fill="#5761D7"/>
<path opacity="0.2" d="M696.042 256.282L683.563 249.118L696.042 241.954L708.29 249.118L696.042 256.282Z" fill="#5761D7"/>
<path opacity="0.4" d="M720.539 270.379L708.291 263.446L720.539 256.282L732.787 263.446L720.539 270.379Z" fill="#5761D7"/>
<path opacity="0.2" d="M745.265 284.706L732.786 277.542L745.265 270.378L757.513 277.542L745.265 284.706Z" fill="#5761D7"/>
<path opacity="0.2" d="M769.761 298.803L757.513 291.639L769.761 284.706L782.008 291.639L769.761 298.803Z" fill="#5761D7"/>
<path opacity="0.2" d="M548.377 199.432L535.898 192.5L548.377 185.336L560.625 192.5L548.377 199.432Z" fill="#5761D7"/>
<path opacity="0.2" d="M572.873 213.76L560.625 206.596L572.873 199.433L585.121 206.596L572.873 213.76Z" fill="#5761D7"/>
<path opacity="0.2" d="M597.6 227.855L585.121 220.692L597.6 213.759L609.848 220.692L597.6 227.855Z" fill="#5761D7"/>
<path opacity="0.2" d="M622.095 242.185L609.848 235.021L622.095 227.857L634.343 235.021L622.095 242.185Z" fill="#5761D7"/>
<path opacity="0.2" d="M646.592 256.28L634.344 249.116L646.592 242.184L659.07 249.116L646.592 256.28Z" fill="#5761D7"/>
<path opacity="0.2" d="M671.318 270.377L659.07 263.444L671.318 256.28L683.566 263.444L671.318 270.377Z" fill="#5761D7"/>
<path opacity="0.2" d="M695.813 284.704L683.565 277.54L695.813 270.376L708.061 277.54L695.813 284.704Z" fill="#5761D7"/>
<path opacity="0.2" d="M720.539 298.802L708.061 291.869L720.539 284.705L732.787 291.869L720.539 298.802Z" fill="#5761D7"/>
<path opacity="0.2" d="M745.035 313.128L732.787 305.965L745.035 298.801L757.283 305.965L745.035 313.128Z" fill="#5761D7"/>
<path opacity="0.2" d="M523.651 213.761L511.403 206.597L523.651 199.664L535.899 206.597L523.651 213.761Z" fill="#5761D7"/>
<path opacity="0.2" d="M548.147 227.856L535.899 220.924L548.147 213.76L560.395 220.924L548.147 227.856Z" fill="#5761D7"/>
<path opacity="0.4" d="M572.873 242.185L560.395 235.021L572.873 227.857L585.121 235.021L572.873 242.185Z" fill="#5761D7"/>
<path opacity="0.2" d="M597.369 256.282L585.121 249.349L597.369 242.186L609.617 249.349L597.369 256.282Z" fill="#5761D7"/>
<path opacity="0.1" d="M622.096 270.609L609.617 263.445L622.096 256.281L634.344 263.445L622.096 270.609Z" fill="#5761D7"/>
<path opacity="0.2" d="M646.592 284.707L634.344 277.543L646.592 270.61L658.839 277.543L646.592 284.707Z" fill="#5761D7"/>
<path opacity="0.2" d="M671.088 299.033L658.84 291.869L671.088 284.705L683.566 291.869L671.088 299.033Z" fill="#5761D7"/>
<path opacity="0.2" d="M695.813 313.13L683.565 305.966L695.813 299.033L708.061 305.966L695.813 313.13Z" fill="#5761D7"/>
<path opacity="0.2" d="M720.309 327.456L708.062 320.292L720.309 313.128L732.557 320.292L720.309 327.456Z" fill="#5761D7"/>
<path opacity="0.2" d="M498.924 228.087L486.676 220.924L498.924 213.76L511.171 220.924L498.924 228.087Z" fill="#5761D7"/>
<path opacity="0.2" d="M523.42 242.185L511.172 235.022L523.42 228.089L535.899 235.022L523.42 242.185Z" fill="#5761D7"/>
<path opacity="0.4" d="M548.146 256.511L535.898 249.347L548.146 242.184L560.394 249.347L548.146 256.511Z" fill="#5761D7"/>
<path opacity="0.2" d="M572.641 270.608L560.394 263.444L572.641 256.512L584.889 263.444L572.641 270.608Z" fill="#5761D7"/>
<path opacity="0.2" d="M597.369 284.704L584.89 277.771L597.369 270.607L609.616 277.771L597.369 284.704Z" fill="#5761D7"/>
<path opacity="0.1" d="M621.864 299.033L609.616 291.869L621.864 284.705L634.112 291.869L621.864 299.033Z" fill="#5761D7"/>
<path opacity="0.4" d="M646.591 313.13L634.112 306.197L646.591 299.033L658.839 306.197L646.591 313.13Z" fill="#5761D7"/>
<path opacity="0.2" d="M671.086 327.456L658.838 320.292L671.086 313.128L683.333 320.292L671.086 327.456Z" fill="#5761D7"/>
<path opacity="0.1" d="M695.582 341.554L683.334 334.621L695.582 327.457L708.061 334.621L695.582 341.554Z" fill="#5761D7"/>
<path opacity="0.2" d="M474.197 242.183L461.949 235.251L474.197 228.087L486.445 235.251L474.197 242.183Z" fill="#5761D7"/>
<path opacity="0.4" d="M498.924 256.51L486.445 249.346L498.924 242.183L511.172 249.346L498.924 256.51Z" fill="#5761D7"/>
<path opacity="0.2" d="M523.42 270.607L511.172 263.675L523.42 256.511L535.667 263.675L523.42 270.607Z" fill="#5761D7"/>
<path opacity="0.2" d="M547.915 284.936L535.667 277.772L547.915 270.608L560.394 277.772L547.915 284.936Z" fill="#5761D7"/>
<path opacity="0.2" d="M572.641 299.03L560.394 291.866L572.641 284.934L584.889 291.866L572.641 299.03Z" fill="#5761D7"/>
<path opacity="0.2" d="M597.137 313.36L584.89 306.196L597.137 299.032L609.385 306.196L597.137 313.36Z" fill="#5761D7"/>
<path opacity="0.2" d="M621.864 327.457L609.385 320.293L621.864 313.36L634.111 320.293L621.864 327.457Z" fill="#5761D7"/>
<path opacity="0.4" d="M646.359 341.553L634.111 334.62L646.359 327.456L658.607 334.62L646.359 341.553Z" fill="#5761D7"/>
<path opacity="0.2" d="M671.086 355.878L658.607 348.715L671.086 341.551L683.334 348.715L671.086 355.878Z" fill="#5761D7"/>
<path opacity="0.2" d="M449.47 256.513L437.223 249.349L449.47 242.416L461.718 249.349L449.47 256.513Z" fill="#5761D7"/>
<path opacity="0.1" d="M474.198 270.608L461.719 263.676L474.198 256.512L486.445 263.676L474.198 270.608Z" fill="#5761D7"/>
<path opacity="0.2" d="M498.693 284.938L486.445 277.774L498.693 270.61L510.941 277.774L498.693 284.938Z" fill="#5761D7"/>
<path opacity="0.2" d="M523.419 299.033L510.94 292.1L523.419 284.937L535.667 292.1L523.419 299.033Z" fill="#5761D7"/>
<path opacity="0.2" d="M547.915 313.361L535.667 306.197L547.915 299.033L560.163 306.197L547.915 313.361Z" fill="#5761D7"/>
<path opacity="0.2" d="M572.41 327.459L560.162 320.526L572.41 313.362L584.889 320.526L572.41 327.459Z" fill="#5761D7"/>
<path opacity="0.4" d="M597.137 341.785L584.89 334.621L597.137 327.457L609.385 334.621L597.137 341.785Z" fill="#5761D7"/>
<path opacity="0.2" d="M621.633 355.882L609.385 348.718L621.633 341.785L633.88 348.718L621.633 355.882Z" fill="#5761D7"/>
<path opacity="0.2" d="M646.36 370.207L633.881 363.044L646.36 355.88L658.608 363.044L646.36 370.207Z" fill="#5761D7"/>
<path opacity="0.2" d="M428.904 14.0965L416.656 7.1638L428.904 0L441.383 7.1638L428.904 14.0965Z" fill="#5761D7"/>
<path opacity="0.1" d="M453.631 28.4223L441.383 21.2585L453.631 14.0947L465.878 21.2585L453.631 28.4223Z" fill="#5761D7"/>
<path opacity="0.4" d="M478.127 42.5194L465.879 35.5867L478.127 28.4229L490.606 35.5867L478.127 42.5194Z" fill="#5761D7"/>
<path opacity="0.2" d="M502.853 56.8491L490.605 49.6853L502.853 42.5215L515.101 49.6853L502.853 56.8491Z" fill="#5761D7"/>
<path opacity="0.4" d="M527.348 70.9442L515.101 64.0115L527.348 56.8477L539.596 64.0115L527.348 70.9442Z" fill="#5761D7"/>
<path opacity="0.2" d="M552.075 85.2729L539.596 78.1091L552.075 70.9453L564.322 78.1091L552.075 85.2729Z" fill="#5761D7"/>
<path opacity="0.2" d="M576.57 99.3699L564.322 92.2062L576.57 85.2734L588.818 92.2062L576.57 99.3699Z" fill="#5761D7"/>
<path opacity="0.2" d="M601.066 113.697L588.818 106.533L601.066 99.3691L613.545 106.533L601.066 113.697Z" fill="#5761D7"/>
<path opacity="0.1" d="M625.793 127.794L613.545 120.63L625.793 113.697L638.041 120.63L625.793 127.794Z" fill="#5761D7"/>
<path opacity="0.2" d="M404.409 28.4246L391.93 21.2608L404.409 14.3281L416.656 21.2608L404.409 28.4246Z" fill="#5761D7"/>
<path opacity="0.2" d="M428.904 42.7505L416.656 35.5867L428.904 28.4229L441.152 35.5867L428.904 42.7505Z" fill="#5761D7"/>
<path opacity="0.2" d="M453.4 56.8485L441.152 49.6847L453.4 42.752L465.879 49.6847L453.4 56.8485Z" fill="#5761D7"/>
<path opacity="0.2" d="M478.127 70.9461L465.879 64.0134L478.127 56.8496L490.374 64.0134L478.127 70.9461Z" fill="#5761D7"/>
<path opacity="0.2" d="M502.623 85.2729L490.375 78.1091L502.623 70.9453L515.102 78.1091L502.623 85.2729Z" fill="#5761D7"/>
<path opacity="0.2" d="M527.349 99.3699L515.102 92.4372L527.349 85.2734L539.597 92.4372L527.349 99.3699Z" fill="#5761D7"/>
<path opacity="0.2" d="M551.844 113.697L539.597 106.533L551.844 99.3691L564.092 106.533L551.844 113.697Z" fill="#5761D7"/>
<path opacity="0.2" d="M576.571 127.794L564.092 120.861L576.571 113.697L588.818 120.861L576.571 127.794Z" fill="#5761D7"/>
<path opacity="0.2" d="M601.066 142.121L588.818 134.957L601.066 127.793L613.314 134.957L601.066 142.121Z" fill="#5761D7"/>
<path opacity="0.2" d="M379.681 42.7505L367.434 35.5867L379.681 28.4229L391.929 35.5867L379.681 42.7505Z" fill="#5761D7"/>
<path opacity="0.2" d="M404.177 56.8485L391.93 49.9158L404.177 42.752L416.425 49.9158L404.177 56.8485Z" fill="#5761D7"/>
<path opacity="0.2" d="M428.904 71.1753L416.425 64.0115L428.904 56.8477L441.151 64.0115L428.904 71.1753Z" fill="#5761D7"/>
<path opacity="0.1" d="M453.399 85.2713L441.151 78.1075L453.399 71.1748L465.647 78.1075L453.399 85.2713Z" fill="#5761D7"/>
<path opacity="0.4" d="M477.895 99.5981L465.647 92.4343L477.895 85.2705L490.374 92.4343L477.895 99.5981Z" fill="#5761D7"/>
<path opacity="0.4" d="M502.622 113.696L490.374 106.532L502.622 99.5996L514.87 106.532L502.622 113.696Z" fill="#5761D7"/>
<path opacity="0.2" d="M527.117 128.025L514.869 120.861L527.117 113.697L539.596 120.861L527.117 128.025Z" fill="#5761D7"/>
<path opacity="0.2" d="M551.844 142.119L539.596 134.955L551.844 128.022L564.091 134.955L551.844 142.119Z" fill="#5761D7"/>
<path opacity="0.2" d="M576.34 156.218L564.092 149.285L576.34 142.121L588.587 149.285L576.34 156.218Z" fill="#5761D7"/>
<path opacity="0.4" d="M354.955 57.0796L342.707 49.9158L354.955 42.752L367.203 49.9158L354.955 57.0796Z" fill="#5761D7"/>
<path opacity="0.4" d="M379.451 71.1766L367.203 64.0128L379.451 57.0801L391.93 64.0128L379.451 71.1766Z" fill="#5761D7"/>
<path opacity="0.1" d="M404.177 85.2713L391.93 78.3386L404.177 71.1748L416.425 78.3386L404.177 85.2713Z" fill="#5761D7"/>
<path opacity="0.2" d="M428.673 99.601L416.425 92.4372L428.673 85.2734L440.92 92.4372L428.673 99.601Z" fill="#5761D7"/>
<path opacity="0.2" d="M453.4 113.696L440.921 106.763L453.4 99.5996L465.648 106.763L453.4 113.696Z" fill="#5761D7"/>
<path opacity="0.2" d="M477.895 128.025L465.647 120.861L477.895 113.697L490.143 120.861L477.895 128.025Z" fill="#5761D7"/>
<path opacity="0.4" d="M502.39 142.121L490.143 134.957L502.39 128.024L514.869 134.957L502.39 142.121Z" fill="#5761D7"/>
<path opacity="0.2" d="M527.117 156.449L514.869 149.285L527.117 142.121L539.365 149.285L527.117 156.449Z" fill="#5761D7"/>
<path opacity="0.2" d="M551.613 170.545L539.365 163.381L551.613 156.448L564.092 163.381L551.613 170.545Z" fill="#5761D7"/>
<path opacity="0.2" d="M330.229 71.1766L317.981 64.2439L330.229 57.0801L342.477 64.2439L330.229 71.1766Z" fill="#5761D7"/>
<path opacity="0.2" d="M354.725 85.5024L342.478 78.3386L354.725 71.1748L367.204 78.3386L354.725 85.5024Z" fill="#5761D7"/>
<path opacity="0.2" d="M379.452 99.6004L367.204 92.4366L379.452 85.5039L391.7 92.4366L379.452 99.6004Z" fill="#5761D7"/>
<path opacity="0.2" d="M403.947 113.929L391.699 106.765L403.947 99.6016L416.426 106.765L403.947 113.929Z" fill="#5761D7"/>
<path opacity="0.2" d="M428.674 128.023L416.426 120.859L428.674 113.927L440.921 120.859L428.674 128.023Z" fill="#5761D7"/>
<path opacity="0.2" d="M453.17 142.121L440.922 135.188L453.17 128.024L465.417 135.188L453.17 142.121Z" fill="#5761D7"/>
<path opacity="0.2" d="M477.897 156.449L465.418 149.285L477.897 142.121L490.145 149.285L477.897 156.449Z" fill="#5761D7"/>
<path opacity="0.2" d="M502.391 170.545L490.144 163.612L502.391 156.448L514.639 163.612L502.391 170.545Z" fill="#5761D7"/>
<path opacity="0.2" d="M526.887 184.872L514.64 177.708L526.887 170.544L539.366 177.708L526.887 184.872Z" fill="#5761D7"/>
<path opacity="0.2" d="M305.503 85.5024L293.255 78.3386L305.503 71.1748L317.75 78.3386L305.503 85.5024Z" fill="#5761D7"/>
<path opacity="0.2" d="M330.23 99.6004L317.751 92.6677L330.23 85.5039L342.478 92.6677L330.23 99.6004Z" fill="#5761D7"/>
<path opacity="0.4" d="M354.725 113.927L342.478 106.763L354.725 99.5996L366.973 106.763L354.725 113.927Z" fill="#5761D7"/>
<path opacity="0.2" d="M379.22 128.023L366.973 121.091L379.22 113.927L391.699 121.091L379.22 128.023Z" fill="#5761D7"/>
<path opacity="0.1" d="M403.947 142.35L391.699 135.186L403.947 128.022L416.195 135.186L403.947 142.35Z" fill="#5761D7"/>
<path opacity="0.2" d="M428.442 156.447L416.194 149.283L428.442 142.351L440.921 149.283L428.442 156.447Z" fill="#5761D7"/>
<path opacity="0.2" d="M453.17 170.776L440.922 163.612L453.17 156.448L465.417 163.612L453.17 170.776Z" fill="#5761D7"/>
<path opacity="0.2" d="M477.665 184.871L465.417 177.707L477.665 170.774L489.913 177.707L477.665 184.871Z" fill="#5761D7"/>
<path opacity="0.2" d="M502.392 199.201L489.913 192.037L502.392 184.873L514.64 192.037L502.392 199.201Z" fill="#5761D7"/>
<path opacity="0.2" d="M280.775 99.8315L268.527 92.6677L280.775 85.5039L293.023 92.6677L280.775 99.8315Z" fill="#5761D7"/>
<path opacity="0.2" d="M305.502 113.928L293.023 106.764L305.502 99.8311L317.75 106.764L305.502 113.928Z" fill="#5761D7"/>
<path opacity="0.4" d="M329.998 128.254L317.75 121.091L329.998 113.927L342.246 121.091L329.998 128.254Z" fill="#5761D7"/>
<path opacity="0.2" d="M354.724 142.35L342.245 135.187L354.724 128.254L366.972 135.187L354.724 142.35Z" fill="#5761D7"/>
<path opacity="0.2" d="M379.219 156.447L366.972 149.514L379.219 142.351L391.467 149.514L379.219 156.447Z" fill="#5761D7"/>
<path opacity="0.1" d="M403.716 170.776L391.468 163.612L403.716 156.448L416.194 163.612L403.716 170.776Z" fill="#5761D7"/>
<path opacity="0.4" d="M428.442 184.873L416.194 177.94L428.442 170.776L440.69 177.94L428.442 184.873Z" fill="#5761D7"/>
<path opacity="0.2" d="M452.937 199.201L440.689 192.037L452.937 184.873L465.416 192.037L452.937 199.201Z" fill="#5761D7"/>
<path opacity="0.1" d="M477.665 213.297L465.417 206.133L477.665 199.2L489.913 206.133L477.665 213.297Z" fill="#5761D7"/>
<path opacity="0.2" d="M256.049 113.928L243.801 106.995L256.049 99.8311L268.527 106.995L256.049 113.928Z" fill="#5761D7"/>
<path opacity="0.4" d="M280.775 128.254L268.527 121.091L280.775 113.927L293.023 121.091L280.775 128.254Z" fill="#5761D7"/>
<path opacity="0.2" d="M305.271 142.35L293.023 135.187L305.271 128.254L317.519 135.187L305.271 142.35Z" fill="#5761D7"/>
<path opacity="0.2" d="M329.997 156.68L317.519 149.516L329.997 142.353L342.245 149.516L329.997 156.68Z" fill="#5761D7"/>
<path opacity="0.2" d="M354.493 170.776L342.245 163.612L354.493 156.68L366.741 163.612L354.493 170.776Z" fill="#5761D7"/>
<path opacity="0.2" d="M379.219 185.104L366.74 177.94L379.219 170.776L391.467 177.94L379.219 185.104Z" fill="#5761D7"/>
<path opacity="0.2" d="M403.716 199.201L391.468 192.037L403.716 185.104L415.963 192.037L403.716 199.201Z" fill="#5761D7"/>
<path opacity="0.4" d="M428.211 213.297L415.963 206.364L428.211 199.2L440.69 206.364L428.211 213.297Z" fill="#5761D7"/>
<path opacity="0.2" d="M452.937 227.623L440.689 220.46L452.937 213.296L465.185 220.46L452.937 227.623Z" fill="#5761D7"/>
<path opacity="0.2" d="M231.553 128.256L219.074 121.092L231.553 114.159L243.801 121.092L231.553 128.256Z" fill="#5761D7"/>
<path opacity="0.1" d="M256.049 142.35L243.801 135.418L256.049 128.254L268.296 135.418L256.049 142.35Z" fill="#5761D7"/>
<path opacity="0.2" d="M280.545 156.68L268.297 149.516L280.545 142.353L293.024 149.516L280.545 156.68Z" fill="#5761D7"/>
<path opacity="0.2" d="M305.271 170.778L293.023 163.845L305.271 156.682L317.519 163.845L305.271 170.778Z" fill="#5761D7"/>
<path opacity="0.2" d="M329.767 185.104L317.52 177.94L329.767 170.776L342.015 177.94L329.767 185.104Z" fill="#5761D7"/>
<path opacity="0.2" d="M354.494 199.201L342.015 192.268L354.494 185.104L366.741 192.268L354.494 199.201Z" fill="#5761D7"/>
<path opacity="0.4" d="M378.988 213.528L366.74 206.364L378.988 199.2L391.236 206.364L378.988 213.528Z" fill="#5761D7"/>
<path opacity="0.2" d="M403.715 227.625L391.236 220.461L403.715 213.528L415.963 220.461L403.715 227.625Z" fill="#5761D7"/>
<path opacity="0.2" d="M428.211 241.953L415.963 234.789L428.211 227.625L440.458 234.789L428.211 241.953Z" fill="#5761D7"/>
<path opacity="0.2" d="M428.904 270.143L416.656 263.211L428.904 256.047L441.383 263.211L428.904 270.143Z" fill="#5761D7"/>
<path opacity="0.1" d="M453.631 284.47L441.383 277.306L453.631 270.143L465.878 277.306L453.631 284.47Z" fill="#5761D7"/>
<path opacity="0.4" d="M478.127 298.566L465.879 291.634L478.127 284.47L490.606 291.634L478.127 298.566Z" fill="#5761D7"/>
<path opacity="0.2" d="M502.853 312.895L490.605 305.731L502.853 298.567L515.101 305.731L502.853 312.895Z" fill="#5761D7"/>
<path opacity="0.4" d="M527.348 326.991L515.101 320.058L527.348 312.895L539.596 320.058L527.348 326.991Z" fill="#5761D7"/>
<path opacity="0.2" d="M552.075 341.321L539.596 334.157L552.075 326.993L564.322 334.157L552.075 341.321Z" fill="#5761D7"/>
<path opacity="0.2" d="M576.57 355.416L564.322 348.252L576.57 341.319L588.818 348.252L576.57 355.416Z" fill="#5761D7"/>
<path opacity="0.2" d="M601.066 369.744L588.818 362.58L601.066 355.416L613.545 362.58L601.066 369.744Z" fill="#5761D7"/>
<path opacity="0.1" d="M625.793 383.842L613.545 376.678L625.793 369.745L638.041 376.678L625.793 383.842Z" fill="#5761D7"/>
<path opacity="0.2" d="M404.409 284.472L391.93 277.308L404.409 270.375L416.656 277.308L404.409 284.472Z" fill="#5761D7"/>
<path opacity="0.2" d="M428.904 298.798L416.656 291.635L428.904 284.471L441.152 291.635L428.904 298.798Z" fill="#5761D7"/>
<path opacity="0.2" d="M453.4 312.896L441.152 305.733L453.4 298.8L465.879 305.733L453.4 312.896Z" fill="#5761D7"/>
<path opacity="0.2" d="M478.127 327.225L465.879 320.061L478.127 312.897L490.374 320.061L478.127 327.225Z" fill="#5761D7"/>
<path opacity="0.2" d="M502.623 341.319L490.375 334.155L502.623 327.223L515.102 334.155L502.623 341.319Z" fill="#5761D7"/>
<path opacity="0.2" d="M527.349 355.417L515.102 348.484L527.349 341.32L539.597 348.484L527.349 355.417Z" fill="#5761D7"/>
<path opacity="0.2" d="M551.844 369.745L539.597 362.581L551.844 355.417L564.092 362.581L551.844 369.745Z" fill="#5761D7"/>
<path opacity="0.2" d="M576.571 383.843L564.092 376.91L576.571 369.746L588.818 376.91L576.571 383.843Z" fill="#5761D7"/>
<path opacity="0.2" d="M601.066 398.168L588.818 391.005L601.066 383.841L613.314 391.005L601.066 398.168Z" fill="#5761D7"/>
<path opacity="0.2" d="M379.681 298.797L367.434 291.634L379.681 284.47L391.929 291.634L379.681 298.797Z" fill="#5761D7"/>
<path opacity="0.2" d="M404.177 312.895L391.93 305.963L404.177 298.799L416.425 305.963L404.177 312.895Z" fill="#5761D7"/>
<path opacity="0.2" d="M428.904 327.222L416.425 320.058L428.904 312.895L441.151 320.058L428.904 327.222Z" fill="#5761D7"/>
<path opacity="0.1" d="M453.399 341.318L441.151 334.385L453.399 327.222L465.647 334.385L453.399 341.318Z" fill="#5761D7"/>
<path opacity="0.4" d="M477.895 355.645L465.647 348.481L477.895 341.317L490.374 348.481L477.895 355.645Z" fill="#5761D7"/>
<path opacity="0.4" d="M502.622 369.743L490.374 362.579L502.622 355.646L514.87 362.579L502.622 369.743Z" fill="#5761D7"/>
<path opacity="0.2" d="M527.117 384.073L514.869 376.909L527.117 369.745L539.596 376.909L527.117 384.073Z" fill="#5761D7"/>
<path opacity="0.2" d="M551.844 398.166L539.596 391.002L551.844 384.069L564.091 391.002L551.844 398.166Z" fill="#5761D7"/>
<path opacity="0.2" d="M576.34 412.264L564.092 405.332L576.34 398.168L588.587 405.332L576.34 412.264Z" fill="#5761D7"/>
<path opacity="0.4" d="M354.955 313.126L342.707 305.963L354.955 298.799L367.203 305.963L354.955 313.126Z" fill="#5761D7"/>
<path opacity="0.4" d="M379.451 327.223L367.203 320.059L379.451 313.126L391.93 320.059L379.451 327.223Z" fill="#5761D7"/>
<path opacity="0.1" d="M404.177 341.318L391.93 334.385L404.177 327.222L416.425 334.385L404.177 341.318Z" fill="#5761D7"/>
<path opacity="0.2" d="M428.673 355.647L416.425 348.483L428.673 341.319L440.92 348.483L428.673 355.647Z" fill="#5761D7"/>
<path opacity="0.2" d="M453.4 369.743L440.921 362.81L453.4 355.646L465.648 362.81L453.4 369.743Z" fill="#5761D7"/>
<path opacity="0.2" d="M477.895 384.073L465.647 376.909L477.895 369.745L490.143 376.909L477.895 384.073Z" fill="#5761D7"/>
<path opacity="0.4" d="M502.39 398.168L490.143 391.235L502.39 384.071L514.869 391.235L502.39 398.168Z" fill="#5761D7"/>
<path opacity="0.2" d="M527.117 412.496L514.869 405.332L527.117 398.168L539.365 405.332L527.117 412.496Z" fill="#5761D7"/>
<path opacity="0.2" d="M551.613 426.592L539.365 419.428L551.613 412.495L564.092 419.428L551.613 426.592Z" fill="#5761D7"/>
<path opacity="0.2" d="M330.228 327.223L317.98 320.291L330.228 313.127L342.476 320.291L330.228 327.223Z" fill="#5761D7"/>
<path opacity="0.2" d="M354.724 341.55L342.477 334.386L354.724 327.223L367.203 334.386L354.724 341.55Z" fill="#5761D7"/>
<path opacity="0.2" d="M379.451 355.647L367.203 348.483L379.451 341.551L391.699 348.483L379.451 355.647Z" fill="#5761D7"/>
<path opacity="0.2" d="M403.946 369.977L391.698 362.813L403.946 355.649L416.425 362.813L403.946 369.977Z" fill="#5761D7"/>
<path opacity="0.2" d="M428.673 384.072L416.425 376.908L428.673 369.976L440.92 376.908L428.673 384.072Z" fill="#5761D7"/>
<path opacity="0.2" d="M453.169 398.4L440.921 391.236L453.169 384.072L465.416 391.236L453.169 398.4Z" fill="#5761D7"/>
<path opacity="0.2" d="M477.896 412.497L465.417 405.333L477.896 398.4L490.144 405.333L477.896 412.497Z" fill="#5761D7"/>
<path opacity="0.2" d="M502.39 426.593L490.143 419.66L502.39 412.496L514.638 419.66L502.39 426.593Z" fill="#5761D7"/>
<path opacity="0.2" d="M526.886 440.919L514.639 433.756L526.886 426.592L539.365 433.756L526.886 440.919Z" fill="#5761D7"/>
<path opacity="0.2" d="M305.503 341.552L293.255 334.388L305.503 327.455L317.75 334.388L305.503 341.552Z" fill="#5761D7"/>
<path opacity="0.2" d="M330.23 355.646L317.751 348.714L330.23 341.55L342.478 348.714L330.23 355.646Z" fill="#5761D7"/>
<path opacity="0.4" d="M354.725 369.976L342.478 362.812L354.725 355.648L366.973 362.812L354.725 369.976Z" fill="#5761D7"/>
<path opacity="0.2" d="M379.22 384.073L366.973 377.14L379.22 369.977L391.699 377.14L379.22 384.073Z" fill="#5761D7"/>
<path opacity="0.1" d="M403.947 398.399L391.699 391.235L403.947 384.071L416.195 391.235L403.947 398.399Z" fill="#5761D7"/>
<path opacity="0.2" d="M428.442 412.496L416.194 405.332L428.442 398.399L440.921 405.332L428.442 412.496Z" fill="#5761D7"/>
<path opacity="0.2" d="M453.17 426.823L440.922 419.659L453.17 412.495L465.417 419.659L453.17 426.823Z" fill="#5761D7"/>
<path opacity="0.2" d="M477.665 440.921L465.417 433.757L477.665 426.824L489.913 433.757L477.665 440.921Z" fill="#5761D7"/>
<path opacity="0.2" d="M502.392 455.247L489.913 448.083L502.392 440.919L514.64 448.083L502.392 455.247Z" fill="#5761D7"/>
<path opacity="0.2" d="M280.775 355.878L268.527 348.715L280.775 341.551L293.023 348.715L280.775 355.878Z" fill="#5761D7"/>
<path opacity="0.2" d="M305.502 369.975L293.023 362.812L305.502 355.879L317.75 362.812L305.502 369.975Z" fill="#5761D7"/>
<path opacity="0.4" d="M329.998 384.303L317.75 377.139L329.998 369.976L342.246 377.139L329.998 384.303Z" fill="#5761D7"/>
<path opacity="0.2" d="M354.724 398.398L342.245 391.234L354.724 384.302L366.972 391.234L354.724 398.398Z" fill="#5761D7"/>
<path opacity="0.2" d="M379.219 412.495L366.972 405.562L379.219 398.398L391.467 405.562L379.219 412.495Z" fill="#5761D7"/>
<path opacity="0.1" d="M403.716 426.824L391.468 419.66L403.716 412.496L416.194 419.66L403.716 426.824Z" fill="#5761D7"/>
<path opacity="0.4" d="M428.442 440.922L416.194 433.989L428.442 426.825L440.69 433.989L428.442 440.922Z" fill="#5761D7"/>
<path opacity="0.2" d="M452.937 455.248L440.689 448.084L452.937 440.92L465.416 448.084L452.937 455.248Z" fill="#5761D7"/>
<path opacity="0.1" d="M477.665 469.345L465.417 462.412L477.665 455.248L489.913 462.412L477.665 469.345Z" fill="#5761D7"/>
<path opacity="0.2" d="M256.049 369.975L243.801 363.043L256.049 355.879L268.527 363.043L256.049 369.975Z" fill="#5761D7"/>
<path opacity="0.4" d="M280.775 384.303L268.527 377.139L280.775 369.976L293.023 377.139L280.775 384.303Z" fill="#5761D7"/>
<path opacity="0.2" d="M305.271 398.398L293.023 391.466L305.271 384.302L317.519 391.466L305.271 398.398Z" fill="#5761D7"/>
<path opacity="0.2" d="M329.997 412.728L317.519 405.564L329.997 398.4L342.245 405.564L329.997 412.728Z" fill="#5761D7"/>
<path opacity="0.2" d="M354.493 426.823L342.245 419.659L354.493 412.727L366.741 419.659L354.493 426.823Z" fill="#5761D7"/>
<path opacity="0.2" d="M379.219 441.153L366.74 433.989L379.219 426.825L391.467 433.989L379.219 441.153Z" fill="#5761D7"/>
<path opacity="0.2" d="M403.716 455.249L391.468 448.085L403.716 441.152L415.963 448.085L403.716 455.249Z" fill="#5761D7"/>
<path opacity="0.4" d="M428.211 469.576L415.963 462.412L428.211 455.248L440.69 462.412L428.211 469.576Z" fill="#5761D7"/>
<path opacity="0.2" d="M452.937 483.674L440.689 476.51L452.937 469.577L465.185 476.51L452.937 483.674Z" fill="#5761D7"/>
<path opacity="0.2" d="M231.553 384.303L219.074 377.139L231.553 370.206L243.801 377.139L231.553 384.303Z" fill="#5761D7"/>
<path opacity="0.1" d="M256.049 398.628L243.801 391.465L256.049 384.301L268.296 391.465L256.049 398.628Z" fill="#5761D7"/>
<path opacity="0.2" d="M280.545 412.726L268.297 405.563L280.545 398.63L293.024 405.563L280.545 412.726Z" fill="#5761D7"/>
<path opacity="0.2" d="M305.271 426.825L293.023 419.892L305.271 412.729L317.519 419.892L305.271 426.825Z" fill="#5761D7"/>
<path opacity="0.2" d="M329.767 441.152L317.52 433.988L329.767 426.824L342.015 433.988L329.767 441.152Z" fill="#5761D7"/>
<path opacity="0.2" d="M354.494 455.248L342.015 448.315L354.494 441.151L366.741 448.315L354.494 455.248Z" fill="#5761D7"/>
<path opacity="0.4" d="M378.988 469.575L366.74 462.411L378.988 455.247L391.236 462.411L378.988 469.575Z" fill="#5761D7"/>
<path opacity="0.2" d="M403.715 483.673L391.236 476.509L403.715 469.576L415.963 476.509L403.715 483.673Z" fill="#5761D7"/>
<path opacity="0.2" d="M428.211 497.998L415.963 490.835L428.211 483.671L440.458 490.835L428.211 497.998Z" fill="#5761D7"/>
</g>
</svg>
