<svg width="32" height="32" viewBox="0 0 32 32" fill="none" xmlns="http://www.w3.org/2000/svg">
<circle cx="15.6303" cy="15.6303" r="15.6303" fill="#F1F6F9"/>
<path d="M12.0485 13.2002H9.1499V22.1114H12.0485V13.2002Z" fill="#BAC6EB"/>
<path d="M19.9435 13.3047C19.9127 13.295 19.8836 13.2844 19.8512 13.2755C19.8123 13.2666 19.7734 13.2593 19.7337 13.2529C19.5798 13.2221 19.4113 13.2002 19.2136 13.2002C17.5237 13.2002 16.452 14.4291 16.0988 14.9038V13.2002H13.2002V22.1114H16.0988V17.2507C16.0988 17.2507 18.2893 14.1999 19.2136 16.4406C19.2136 18.4408 19.2136 22.1114 19.2136 22.1114H22.1114V16.0979C22.1114 14.7515 21.1886 13.6296 19.9435 13.3047Z" fill="#BAC6EB"/>
<path d="M10.5676 11.9848C11.3506 11.9848 11.9853 11.3501 11.9853 10.5671C11.9853 9.78413 11.3506 9.14941 10.5676 9.14941C9.78462 9.14941 9.1499 9.78413 9.1499 10.5671C9.1499 11.3501 9.78462 11.9848 10.5676 11.9848Z" fill="#BAC6EB"/>
</svg>
