<svg width="54" height="54" viewBox="0 0 54 54" fill="none" xmlns="http://www.w3.org/2000/svg">
<circle cx="27" cy="27" r="26.5" fill="white" stroke="#F1F0F9"/>
<path fill-rule="evenodd" clip-rule="evenodd" d="M13.9092 13.9092H40.091V28.136C40.091 30.2527 39.5925 33.5824 37.7837 36.6805C35.958 39.8071 32.82 42.655 27.0001 43.8313C21.1808 42.6551 18.0425 39.8076 16.2162 36.6809C14.4074 33.5821 13.9092 30.2524 13.9092 28.1353V13.9092ZM39.1559 14.8442V28.1353C39.1559 32.1342 37.3866 40.7149 27.0001 42.8962C16.6136 40.7149 14.8442 32.1342 14.8442 28.1353V14.8442H39.1559Z" fill="#00B6FA"/>
<path d="M39.1556 14.8438H14.8439V28.1348C14.8439 32.1337 16.6133 40.7144 26.9998 42.9425C37.3863 40.7144 39.1556 32.1337 39.1556 28.1348V14.8438Z" fill="#142D51"/>
<path d="M36.1635 18.3076H17.8362V24.3423L30.2901 34.5681L29.1256 35.5251L17.8362 26.2548V28.168C17.8362 32.1668 20.0336 38.2711 26.9998 39.4326C32.9244 38.4452 35.3997 33.8821 36.0075 30.0792C36.0205 29.9973 23.7096 19.854 23.7096 19.854H26.0385L36.1635 28.1673L36.1635 18.3076Z" fill="#10A0EC"/>
</svg>
