<svg width="54" height="54" viewBox="0 0 54 54" fill="none" xmlns="http://www.w3.org/2000/svg">
<circle cx="27" cy="27" r="26.5" fill="white" stroke="#F1F0F9"/>
<path d="M27 43C35.8366 43 43 35.8366 43 27C43 18.1634 35.8366 11 27 11C18.1634 11 11 18.1634 11 27C11 35.8366 18.1634 43 27 43Z" fill="url(#paint0_linear)"/>
<path fill-rule="evenodd" clip-rule="evenodd" d="M30.4094 23.5048C29.3374 23.0821 28.1827 22.8613 27.0166 22.8613C24.5656 22.8613 22.2602 23.8236 20.5252 25.5707C18.7976 27.3102 17.8378 29.6208 17.8224 32.0768L17.8203 32.4067L18.1069 32.5696C19.4882 33.3555 21.0502 33.7691 22.633 33.7691C22.6765 33.7691 22.7204 33.7688 22.764 33.768C24.1438 33.7483 25.5088 33.4166 26.7463 32.804C26.3561 32.5859 25.9822 32.34 25.6267 32.0691C23.4697 32.9187 21.0251 32.8142 18.9563 31.7496C19.1575 27.4398 22.7061 23.9872 27.0166 23.9872C28.2155 23.9872 29.3995 24.2524 30.4691 24.7564C30.483 24.3391 30.463 23.9209 30.4094 23.5048Z" fill="white"/>
<path fill-rule="evenodd" clip-rule="evenodd" d="M36.2107 32.0005C36.1779 28.9469 34.691 26.161 32.2123 24.4639C32.2142 24.9107 32.1843 25.3573 32.123 25.8012C33.884 27.2392 34.9579 29.3568 35.0752 31.677C31.276 33.6346 26.5381 32.2634 24.3798 28.5226C23.7969 27.5122 23.4395 26.3823 23.3344 25.2279C22.9678 25.4279 22.6175 25.6579 22.2869 25.9159C22.4612 27.0269 22.8401 28.1056 23.4055 29.0856C24.6332 31.2136 26.607 32.7392 28.9632 33.3813C29.7624 33.5992 30.5752 33.7072 31.3835 33.7072C32.9584 33.7072 34.5163 33.2978 35.9262 32.496L36.2142 32.3322L36.2107 32.0005Z" fill="white"/>
<path fill-rule="evenodd" clip-rule="evenodd" d="M27.3418 16.4997L27.0575 16.333L26.7732 16.4994C25.369 17.3212 24.2023 18.4995 23.3993 19.9067C22.7059 21.122 22.2958 22.4834 22.1996 23.873C22.584 23.6445 22.9845 23.4436 23.3986 23.2719C23.7553 20.9811 25.0874 18.9108 27.057 17.6456C30.6743 19.9716 31.8639 24.7941 29.6911 28.5602C29.1028 29.5802 28.298 30.4621 27.345 31.1391C27.701 31.3562 28.0748 31.5447 28.4634 31.7023C29.3444 30.9879 30.0946 30.1127 30.6655 29.1231C33.2023 24.726 31.7114 19.0632 27.3418 16.4997Z" fill="white"/>
<path fill-rule="evenodd" clip-rule="evenodd" d="M27.0522 26.1083C26.5339 26.1083 26.1123 26.5302 26.1123 27.0489C26.1123 27.5673 26.5339 27.9892 27.0522 27.9892C27.5703 27.9892 27.9919 27.5673 27.9919 27.0489C27.9919 26.5302 27.5703 26.1083 27.0522 26.1083ZM27.0522 29.1153C25.9135 29.1153 24.9872 28.1884 24.9872 27.0489C24.9872 25.9094 25.9135 24.9824 27.0522 24.9824C28.1908 24.9824 29.117 25.9094 29.117 27.0489C29.117 28.1884 28.1908 29.1153 27.0522 29.1153Z" fill="white"/>
<defs>
<linearGradient id="paint0_linear" x1="27" y1="11" x2="27" y2="43" gradientUnits="userSpaceOnUse">
<stop stop-color="#00BB00"/>
<stop offset="1" stop-color="#00BB00"/>
</linearGradient>
</defs>
</svg>
